<?xml version="1.0" encoding="UTF-8"?>
<svg id="Layer_1" data-name="Layer 1" xmlns="http://www.w3.org/2000/svg" viewBox="0 0 512 512">
  <defs>
    <style>
      .cls-1 {
        fill: #fff;
      }

      .cls-2 {
        fill: #177ae5;
      }
    </style>
  </defs>
  <circle class="cls-1" cx="256" cy="256" r="256"/>
  <g>
    <path class="cls-2" d="M256.65,91.69c3.41-1.49,7.28-1.49,10.69,0,65.87,28.79,128.7,64.09,187.56,105.36,6.04,4.24,7.5,12.57,3.27,18.61-1.78,2.54-4.39,4.38-7.38,5.21-61.11,16.88-120.23,40.24-176.38,69.68l-.05.04c-2.03,1.07-4.04,2.12-6.06,3.21-3.93,2.1-8.66,2.1-12.59,0-24.08-12.85-48.73-24.61-73.87-35.23v-3.99c0-2.33,1.19-4.42,3.06-5.54,26.89-16.29,54.54-31.27,82.88-44.89,6.65-3.2,9.45-11.18,6.25-17.83-3.2-6.65-11.18-9.45-17.83-6.25-29.11,13.99-57.52,29.38-85.14,46.12-7.94,4.82-13.5,12.76-15.3,21.87-27.05-10.41-54.6-19.49-82.54-27.2-7.11-1.96-11.29-9.32-9.32-16.43.83-2.99,2.67-5.6,5.21-7.38,58.85-41.27,121.68-76.55,187.54-105.34Z"/>
    <path class="cls-2" d="M280.87,317.33c43.75-23.37,89.44-42.93,136.55-58.46,2.39,25.19,3.92,50.64,4.54,76.31.14,5.51-3.11,10.54-8.19,12.66-50.49,21.09-98.84,46.99-144.37,77.34-4.49,2.99-10.33,2.99-14.82,0-45.52-30.35-93.86-56.25-144.35-77.34-5.08-2.12-8.34-7.14-8.21-12.65.62-25.69,2.16-51.12,4.54-76.34,16.41,5.41,32.6,11.29,48.56,17.63v22.62c-12.79,7.37-17.18,23.7-9.81,36.49,1.85,3.21,4.34,5.99,7.32,8.18-1.6,6.77-3.95,13.41-7.07,19.77,8.05,3.79,16.05,7.73,23.98,11.76,4.47-9.09,7.77-18.71,9.81-28.62,13.48-6,19.55-21.79,13.56-35.27-2.3-5.16-6.17-9.47-11.07-12.29v-11.49c20.81,9.09,41.25,18.99,61.27,29.69,11.8,6.3,25.96,6.3,37.76,0Z"/>
    <path class="cls-2" d="M127.72,388.38c7.48-7.46,13.41-15.85,17.81-24.85,8.07,3.81,16.07,7.75,23.99,11.79-5.83,11.84-13.57,22.63-22.91,31.96-5.4,5.03-13.85,4.73-18.88-.67-4.78-5.13-4.78-13.08,0-18.21l-.02-.02Z"/>
  </g>
</svg>